<svg xmlns="http://www.w3.org/2000/svg" xmlns:xlink="http://www.w3.org/1999/xlink" width="1440" viewBox="0 0 1440 810" height="810" version="1.0"><defs><clipPath id="b"><path d="M 0 0 L 244.328125 0 L 244.328125 44 L 0 44 Z M 0 0"/></clipPath><clipPath id="c"><path d="M 0 48 L 244.328125 48 L 244.328125 227 L 0 227 Z M 0 48"/></clipPath><clipPath id="d"><path d="M 0 231 L 244.328125 231 L 244.328125 410 L 0 410 Z M 0 231"/></clipPath><clipPath id="e"><path d="M 0 414 L 244.328125 414 L 244.328125 593 L 0 593 Z M 0 414"/></clipPath><clipPath id="f"><path d="M 0 597 L 244.328125 597 L 244.328125 776 L 0 776 Z M 0 597"/></clipPath><clipPath id="g"><path d="M 0 780 L 244.328125 780 L 244.328125 810 L 0 810 Z M 0 780"/></clipPath><clipPath id="h"><path d="M 0 408 L 1440 408 L 1440 810 L 0 810 Z M 0 408"/></clipPath><clipPath id="i"><path d="M -68.191406 762.496094 L 1644.097656 388.058594 L 1686.234375 580.757812 L -26.054688 955.191406 Z M -68.191406 762.496094"/></clipPath><clipPath id="j"><path d="M -68.191406 762.496094 L 1644.097656 388.058594 L 1686.234375 580.757812 L -26.054688 955.191406 Z M -68.191406 762.496094"/></clipPath><clipPath id="k"><path d="M 1589.488281 600.351562 L 73.171875 931.933594 C 21.445312 943.242188 -31.449219 912.738281 -44.457031 861.539062 C -58.042969 807.992188 -24.507812 754.238281 29.136719 742.507812 L 1545.453125 410.925781 C 1597.179688 399.613281 1650.078125 430.117188 1663.082031 481.320312 C 1676.667969 534.867188 1643.132812 588.617188 1589.488281 600.351562 Z M 1589.488281 600.351562"/></clipPath><clipPath id="o"><path d="M 946 99 L 1440 99 L 1440 810 L 946 810 Z M 946 99"/></clipPath><clipPath id="p"><path d="M -213.851562 1389.082031 L 1100.472656 -297.535156 L 1653.605469 133.507812 L 339.28125 1820.121094 Z M -213.851562 1389.082031"/></clipPath><clipPath id="q"><path d="M -213.851562 1389.082031 L 1100.472656 -297.535156 L 1653.605469 133.507812 L 339.28125 1820.121094 Z M -213.851562 1389.082031"/></clipPath><clipPath id="r"><path d="M 368 0 L 1399 0 L 1399 810 L 368 810 Z M 368 0"/></clipPath><clipPath id="s"><path d="M -213.851562 1389.082031 L 1100.472656 -297.535156 L 1653.605469 133.507812 L 339.28125 1820.121094 Z M -213.851562 1389.082031"/></clipPath><clipPath id="t"><path d="M -213.851562 1389.082031 L 1100.472656 -297.535156 L 1653.605469 133.507812 L 339.28125 1820.121094 Z M -213.851562 1389.082031"/></clipPath><clipPath id="u"><path d="M 0 0 L 1147 0 L 1147 810 L 0 810 Z M 0 0"/></clipPath><clipPath id="v"><path d="M -213.851562 1389.082031 L 1100.472656 -297.535156 L 1653.605469 133.507812 L 339.28125 1820.121094 Z M -213.851562 1389.082031"/></clipPath><clipPath id="w"><path d="M -213.851562 1389.082031 L 1100.472656 -297.535156 L 1653.605469 133.507812 L 339.28125 1820.121094 Z M -213.851562 1389.082031"/></clipPath><clipPath id="n"><path d="M0 0H1440V810H0z"/></clipPath><linearGradient x1="8.328" gradientTransform="matrix(6.3939 -1.3982 1.3959 6.38337 -66.003 763.313)" xmlns:xlink="http://www.w3.org/1999/xlink" y1="14.879" x2="236.659" gradientUnits="userSpaceOnUse" y2="14.879" xlink:type="simple" xlink:actuate="onLoad" id="l" xlink:show="other"><stop stop-color="#00ADB5" offset="0"/><stop stop-color="#00ADB5" offset=".008"/><stop stop-color="#00ADB5" offset=".016"/><stop stop-color="#00AEB5" offset=".023"/><stop stop-color="#00AFB5" offset=".031"/><stop stop-color="#00AFB5" offset=".039"/><stop stop-color="#00B0B5" offset=".047"/><stop stop-color="#00B0B6" offset=".055"/><stop stop-color="#00B1B6" offset=".063"/><stop stop-color="#00B1B6" offset=".07"/><stop stop-color="#00B2B6" offset=".078"/><stop stop-color="#00B2B6" offset=".086"/><stop stop-color="#00B3B6" offset=".094"/><stop stop-color="#00B3B6" offset=".102"/><stop stop-color="#00B4B7" offset=".109"/><stop stop-color="#00B5B7" offset=".117"/><stop stop-color="#00B5B7" offset=".125"/><stop stop-color="#00B6B7" offset=".133"/><stop stop-color="#00B6B7" offset=".141"/><stop stop-color="#00B7B7" offset=".148"/><stop stop-color="#00B7B7" offset=".156"/><stop stop-color="#00B8B8" offset=".164"/><stop stop-color="#00B8B8" offset=".172"/><stop stop-color="#00B9B8" offset=".18"/><stop stop-color="#00B9B8" offset=".188"/><stop stop-color="#00BAB8" offset=".195"/><stop stop-color="#00BBB8" offset=".203"/><stop stop-color="#00BBB8" offset=".211"/><stop stop-color="#00BCB9" offset=".219"/><stop stop-color="#00BCB9" offset=".227"/><stop stop-color="#00BDB9" offset=".234"/><stop stop-color="#00BDB9" offset=".242"/><stop stop-color="#00BEB9" offset=".25"/><stop stop-color="#00BEB9" offset=".258"/><stop stop-color="#00BFB9" offset=".266"/><stop stop-color="#00BFB9" offset=".273"/><stop stop-color="#00C0BA" offset=".281"/><stop stop-color="#00C1BA" offset=".289"/><stop stop-color="#00C1BA" offset=".297"/><stop stop-color="#00C2BA" offset=".305"/><stop stop-color="#00C2BA" offset=".313"/><stop stop-color="#00C3BA" offset=".32"/><stop stop-color="#00C3BA" offset=".328"/><stop stop-color="#00C4BB" offset=".336"/><stop stop-color="#00C4BB" offset=".344"/><stop stop-color="#00C5BB" offset=".352"/><stop stop-color="#00C5BB" offset=".359"/><stop stop-color="#00C6BB" offset=".367"/><stop stop-color="#00C7BB" offset=".375"/><stop stop-color="#00C7BB" offset=".383"/><stop stop-color="#00C8BC" offset=".391"/><stop stop-color="#00C8BC" offset=".398"/><stop stop-color="#00C9BC" offset=".406"/><stop stop-color="#00C9BC" offset=".414"/><stop stop-color="#00CABC" offset=".422"/><stop stop-color="#00CABC" offset=".43"/><stop stop-color="#00CBBC" offset=".438"/><stop stop-color="#00CBBD" offset=".445"/><stop stop-color="#00CCBD" offset=".453"/><stop stop-color="#00CDBD" offset=".461"/><stop stop-color="#00CDBD" offset=".469"/><stop stop-color="#00CEBD" offset=".477"/><stop stop-color="#00CEBD" offset=".484"/><stop stop-color="#00CFBD" offset=".492"/><stop stop-color="#00CFBE" offset=".5"/><stop stop-color="#00D0BE" offset=".508"/><stop stop-color="#00D0BE" offset=".516"/><stop stop-color="#00D1BE" offset=".523"/><stop stop-color="#00D2BE" offset=".531"/><stop stop-color="#00D2BE" offset=".539"/><stop stop-color="#00D3BE" offset=".547"/><stop stop-color="#00D3BE" offset=".555"/><stop stop-color="#00D4BF" offset=".563"/><stop stop-color="#00D4BF" offset=".57"/><stop stop-color="#00D5BF" offset=".578"/><stop stop-color="#00D5BF" offset=".586"/><stop stop-color="#00D6BF" offset=".594"/><stop stop-color="#00D6BF" offset=".602"/><stop stop-color="#00D7BF" offset=".609"/><stop stop-color="#00D8C0" offset=".617"/><stop stop-color="#00D8C0" offset=".625"/><stop stop-color="#00D9C0" offset=".633"/><stop stop-color="#00D9C0" offset=".641"/><stop stop-color="#00DAC0" offset=".648"/><stop stop-color="#00DAC0" offset=".656"/><stop stop-color="#00DBC0" offset=".664"/><stop stop-color="#00DBC1" offset=".672"/><stop stop-color="#00DCC1" offset=".68"/><stop stop-color="#00DCC1" offset=".688"/><stop stop-color="#00DDC0" offset=".695"/><stop stop-color="#00DDBE" offset=".699"/><stop stop-color="#00DDBD" offset=".703"/><stop stop-color="#0DB" offset=".707"/><stop stop-color="#00DDB9" offset=".711"/><stop stop-color="#00DDB7" offset=".715"/><stop stop-color="#00DDB6" offset=".719"/><stop stop-color="#00DDB4" offset=".723"/><stop stop-color="#00DCB2" offset=".727"/><stop stop-color="#00DCB1" offset=".73"/><stop stop-color="#00DCAF" offset=".734"/><stop stop-color="#00DCAD" offset=".738"/><stop stop-color="#00DCAB" offset=".742"/><stop stop-color="#00DCAA" offset=".746"/><stop stop-color="#00DCA8" offset=".75"/><stop stop-color="#00DCA6" offset=".754"/><stop stop-color="#00DCA5" offset=".758"/><stop stop-color="#00DCA3" offset=".762"/><stop stop-color="#00DCA1" offset=".766"/><stop stop-color="#00DC9F" offset=".77"/><stop stop-color="#00DC9E" offset=".773"/><stop stop-color="#00DC9C" offset=".777"/><stop stop-color="#00DB9A" offset=".781"/><stop stop-color="#00DB99" offset=".785"/><stop stop-color="#00DB97" offset=".789"/><stop stop-color="#00DB95" offset=".793"/><stop stop-color="#00DB94" offset=".797"/><stop stop-color="#00DB92" offset=".801"/><stop stop-color="#01DB90" offset=".805"/><stop stop-color="#01DB8E" offset=".809"/><stop stop-color="#01DB8D" offset=".813"/><stop stop-color="#01DB8B" offset=".816"/><stop stop-color="#01DB89" offset=".82"/><stop stop-color="#01DB88" offset=".824"/><stop stop-color="#01DB86" offset=".828"/><stop stop-color="#01DB84" offset=".832"/><stop stop-color="#01DA82" offset=".836"/><stop stop-color="#01DA81" offset=".84"/><stop stop-color="#01DA7F" offset=".844"/><stop stop-color="#01DA7D" offset=".848"/><stop stop-color="#01DA7C" offset=".852"/><stop stop-color="#01DA7A" offset=".855"/><stop stop-color="#01DA78" offset=".859"/><stop stop-color="#01DA76" offset=".863"/><stop stop-color="#01DA75" offset=".867"/><stop stop-color="#01DA73" offset=".871"/><stop stop-color="#01DA71" offset=".875"/><stop stop-color="#01DA70" offset=".879"/><stop stop-color="#01DA6E" offset=".883"/><stop stop-color="#01D96C" offset=".887"/><stop stop-color="#01D96B" offset=".891"/><stop stop-color="#01D969" offset=".895"/><stop stop-color="#01D967" offset=".898"/><stop stop-color="#01D965" offset=".902"/><stop stop-color="#01D964" offset=".906"/><stop stop-color="#01D962" offset=".91"/><stop stop-color="#01D960" offset=".914"/><stop stop-color="#01D95F" offset=".918"/><stop stop-color="#01D95D" offset=".922"/><stop stop-color="#01D95B" offset=".926"/><stop stop-color="#01D959" offset=".93"/><stop stop-color="#01D958" offset=".934"/><stop stop-color="#01D956" offset=".938"/><stop stop-color="#01D854" offset=".941"/><stop stop-color="#01D853" offset=".945"/><stop stop-color="#01D851" offset=".949"/><stop stop-color="#01D84F" offset=".953"/><stop stop-color="#01D84D" offset=".957"/><stop stop-color="#01D84C" offset=".961"/><stop stop-color="#01D84A" offset=".965"/><stop stop-color="#01D848" offset=".969"/><stop stop-color="#01D847" offset=".973"/><stop stop-color="#01D845" offset=".977"/><stop stop-color="#01D843" offset=".98"/><stop stop-color="#01D842" offset=".984"/><stop stop-color="#01D840" offset=".988"/><stop stop-color="#01D83E" offset=".992"/><stop stop-color="#01D73C" offset=".996"/><stop stop-color="#01D73B" offset="1"/></linearGradient><filter x="0%" y="0%" width="100%" xmlns:xlink="http://www.w3.org/1999/xlink" xlink:type="simple" xlink:actuate="onLoad" height="100%" id="a" xlink:show="other"><feColorMatrix values="0 0 0 0 1 0 0 0 0 1 0 0 0 0 1 0 0 0 1 0" color-interpolation-filters="sRGB"/></filter><mask id="m"><g filter="url(#a)"><path fill-opacity=".686" d="M-144 -81H1584V891H-144z"/></g></mask></defs><path fill="#FFF" d="M-144 -81H1584V891H-144z"/><path fill="#FFF" d="M-144 -81H1584V891H-144z"/><path fill="#C9F8FF" d="M-144 -81H1584V891H-144z"/><g clip-path="url(#b)"><path fill="#0099D8" d="M 244.402344 -1.578125 L 244.402344 43.777344 L 0.00390625 -89.179688 L 0.00390625 -134.539062 Z M 244.402344 -1.578125"/></g><g clip-path="url(#c)"><path fill="#0099D8" d="M 244.402344 181.402344 L 244.402344 226.761719 L 0.00390625 93.777344 L 0.00390625 48.417969 Z M 244.402344 181.402344"/></g><g clip-path="url(#d)"><path fill="#0099D8" d="M 244.402344 364.386719 L 244.402344 409.742188 L 0.00390625 276.761719 L 0.00390625 231.402344 Z M 244.402344 364.386719"/></g><g clip-path="url(#e)"><path fill="#0099D8" d="M 244.402344 547.367188 L 244.402344 592.726562 L 0.00390625 459.769531 L 0.00390625 414.410156 Z M 244.402344 547.367188"/></g><g clip-path="url(#f)"><path fill="#0099D8" d="M 244.402344 730.351562 L 244.402344 775.707031 L 0.00390625 642.75 L 0.00390625 597.367188 Z M 244.402344 730.351562"/></g><g clip-path="url(#g)"><path fill="#0099D8" d="M 244.402344 913.308594 L 244.402344 958.667969 L 0.00390625 825.707031 L 0.00390625 780.347656 Z M 244.402344 913.308594"/></g><path stroke-linecap="round" transform="matrix(71.97639 -21.09344 21.09244 71.97297 -93.609 592.016)" fill="none" d="M 0.499993 -0.00000438905 L 22.488978 -0.0000167791" stroke="#0099D8"/><path stroke-linecap="round" transform="matrix(72.44788 19.41235 -19.41143 72.44443 -146.67 47.978)" fill="none" d="M 0.499995 -0.00000908346 L 22.488977 0.0000124841" stroke="#02D500"/><g clip-path="url(#h)"><g clip-path="url(#i)"><g clip-path="url(#j)"><g clip-path="url(#k)"><path fill="url(#l)" d="M -85.644531 418.34375 L 65.71875 1110.523438 L 1525.644531 791.269531 L 1374.28125 99.089844 Z M -85.644531 418.34375"/></g></g></g></g><path stroke-linecap="round" transform="matrix(25.13596 -70.66624 70.66288 25.13476 -84.378 1484.02)" fill="none" d="M 0.499994 0.0000250371 L 22.488964 -0.0000162801" stroke="#00DDC1"/><g mask="url(#m)"><g><g clip-path="url(#n)"><g clip-path="url(#o)"><g clip-path="url(#p)"><g clip-path="url(#q)"><path fill="#00AAB4" d="M 946.160156 937.628906 L 1599.332031 99.441406 L 1649.617188 138.628906 L 996.445312 976.8125 Z M 946.160156 937.628906"/></g></g></g><g clip-path="url(#r)"><g clip-path="url(#s)"><g clip-path="url(#t)"><path fill="#00AAB4" d="M 368.148438 1160.792969 L 1347.90625 -96.484375 L 1398.191406 -57.300781 L 418.433594 1199.976562 Z M 368.148438 1160.792969"/></g></g></g><g clip-path="url(#u)"><g clip-path="url(#v)"><g clip-path="url(#w)"><path fill="#00AAB4" d="M -209.859375 1383.957031 L 1096.480469 -292.410156 L 1146.765625 -253.226562 L -159.574219 1423.144531 Z M -209.859375 1383.957031"/></g></g></g></g></g></g></svg>